<svg id="Layer_3" data-name="Layer 3" xmlns="http://www.w3.org/2000/svg" viewBox="0 0 468.45 433.3"><path d="M82.27,176.68c2.11-6.47,3.48-13.3,6.46-19.34,11.58-23.52,37.68-32.55,61.58-21.79,30.42,13.68,46.59,52.2,35.08,83.51-11.65,31.67-46.76,42.19-74.46,22.18C95.35,230,86.35,214.58,83.15,195.7a16.38,16.38,0,0,0-.88-2.55Z" transform="translate(-82.27 -42.4)" style="fill:#1ca762"/><path d="M326.62,118.22c-.81,23.55-8.81,45.32-29,61-25,19.39-56.84,15.43-78.91-9.16-27.38-30.5-25-83.71,5.08-111.59,25.87-24,63.34-20.74,85.56,7.5C321.08,80.87,326.22,98,326.62,118.22Z" transform="translate(-82.27 -42.4)" style="fill:#1ca762"/><path d="M339.8,152.28c1.42-31.77,12.46-56,37.35-72.51,32.92-21.88,73.79-8.19,87.38,28.92,12.9,35.21-1.29,77.29-32.87,97.51-34.89,22.34-77.61,5.64-88.51-34.8C341.27,164.42,340.62,157.11,339.8,152.28Z" transform="translate(-82.27 -42.4)" style="fill:#1ca762"/><path d="M550.7,242.94c0,32-25.45,61.56-57,66.21-27.75,4.09-52.12-16.72-53.78-44.85-2-34.28,24.95-65.67,55.69-70.57,28.39-4.53,54.28,16.18,55.13,45.09C550.74,240.19,550.7,241.56,550.7,242.94Z" transform="translate(-82.27 -42.4)" style="fill:#1ca762"/><path d="M469.21,370.11c-18.86-29.49-37.61-59.07-56.73-88.4-19.24-29.52-46.35-48-81.31-52.58-45.69-6-83.55,9.9-110.26,47.31-22,30.81-41.43,63.48-61.72,95.49-8.82,13.92-12.39,29.2-10,45.78a67.46,67.46,0,0,0,64.73,58c11.66.45,22.53-2.88,33.13-7.32a178.51,178.51,0,0,1,81.35-12.92c-4.27-6.51-10.41-18.87-10.8-36.58a41.86,41.86,0,0,1,.88-9.33c3-14.6,5.25-13.32,5.25-13.32l1.9-46.55s-14-16.75-15.48-28.42c-1-8,3.61-13.82,6.65-16.72a4.46,4.46,0,0,1,5.4-.61c2.74,1.68,7,5.12,11,11.75,3.63-.33,5.57-1.59,6.6-2.92A7.18,7.18,0,0,1,343,310.2c5.35-1.85,14.25.67,17.34,6.45l7.77-.22s10.27-12.46,14.46,6.85-5.81,20.27-5.81,20.27l-.65,22.39a25,25,0,0,0,2.93,12.49,105.05,105.05,0,0,0,31.78,35.9c15.5,10.94,33.44,29.67,44.7,46.48,15.66-12.73,25.8-32.42,25.36-53.68C480.92,394.12,476.58,381.63,469.21,370.11ZM285.64,421.52a197.8,197.8,0,0,1-5.19-40.26v-.18c-.63-34.68,9.13-59.58,10.35-62.55l4.15,2.2c-.77,1.82-5.34,13.41-8.93,39.87a131.14,131.14,0,0,0-1,19.77,191.66,191.66,0,0,0,5.2,39.81Zm11.57-14c-.59-2.72-4.71-22.45-3.41-40.82,1.3-18.19,6.3-30.38,7.1-32.22l4.63,1.53c-1,2.57-7.74,21.59-7.4,39.38,0,1.41.09,2.82.22,4.2a227.25,227.25,0,0,0,3,23.4,30.84,30.84,0,0,1,.47,3.06Zm16.05-57.82a69,69,0,0,0-4.16,20.51c-.12,1.95-.15,3.87-.11,5.72a86.19,86.19,0,0,0,2.31,18.11l-4.43,1.34c-.37-1.34-1.89-7.58-2.37-21.08a67.55,67.55,0,0,1,4.6-26.81Z" transform="translate(-82.27 -42.4)" style="fill:#1ca762"/></svg>